<svg width="32" height="32" viewBox="0 0 32 32" fill="none" xmlns="http://www.w3.org/2000/svg">
  <!-- Outer white background circle -->
  <circle cx="16" cy="16" r="16" fill="#ffffff"/>
  
  <!-- Outer decorative border ring with laurel pattern -->
  <circle cx="16" cy="16" r="15" fill="none" stroke="#1e3a8a" stroke-width="0.8"/>
  <circle cx="16" cy="16" r="13.5" fill="none" stroke="#1e3a8a" stroke-width="0.6"/>
  
  <!-- Top banner with MCMX (1910) -->
  <rect x="6" y="3" width="20" height="4" rx="2" fill="#1e3a8a"/>
  <text x="16" y="6.5" text-anchor="middle" fill="white" font-family="serif" font-size="4" font-weight="bold">M • CM • X</text>
  
  <!-- Bottom banner with SERVONS -->
  <rect x="6" y="25" width="20" height="4" rx="2" fill="#1e3a8a"/>
  <text x="16" y="28.5" text-anchor="middle" fill="white" font-family="serif" font-size="3.5" font-weight="bold">SERVONS</text>
  
  <!-- School name text around the circle -->
  <text x="16" y="9" text-anchor="middle" fill="#1e3a8a" font-family="serif" font-size="3.5" font-weight="bold">CATE SCHOOL</text>
  <text x="16" y="23" text-anchor="middle" fill="#1e3a8a" font-family="serif" font-size="3" font-weight="bold">CARPINTERIA • CALIFORNIA</text>
  
  <!-- Central illustration - detailed sailing ship and landscape -->
  <g transform="translate(16, 16)">
    <!-- Water with wave lines -->
    <path d="M-10 3 L-8 2 L-6 3 L-4 2 L-2 3 L0 2 L2 3 L4 2 L6 3 L8 2 L10 3" stroke="#1e3a8a" stroke-width="0.8" fill="none"/>
    
    <!-- Large sailing ship on the right -->
    <g transform="translate(3, 0)">
      <!-- Ship hull -->
      <ellipse cx="0" cy="1" rx="3" ry="1.5" fill="#1e3a8a" opacity="0.8"/>
      <!-- Main mast -->
      <line x1="0" y1="1" x2="0" y2="-3" stroke="#1e3a8a" stroke-width="0.8"/>
      <!-- Fore mast -->
      <line x1="-1.5" y1="1" x2="-1.5" y2="-2" stroke="#1e3a8a" stroke-width="0.6"/>
      <!-- Main sails -->
      <path d="M0 -3 L4 -1.5 L0 0" fill="#1e3a8a" opacity="0.9"/>
      <path d="M0 -3 L-3 -1.5 L0 0" fill="#1e3a8a" opacity="0.7"/>
      <!-- Fore sails -->
      <path d="M-1.5 -2 L1 -0.5 L-1.5 1" fill="#1e3a8a" opacity="0.8"/>
    </g>
    
    <!-- Shore with buildings and trees on the left -->
    <g transform="translate(-6, 0)">
      <!-- Buildings -->
      <rect x="-2" y="-1" width="3" height="3" fill="#1e3a8a" opacity="0.7"/>
      <rect x="-1" y="-2" width="2" height="4" fill="#1e3a8a" opacity="0.7"/>
      <rect x="0" y="-1.5" width="2" height="3.5" fill="#1e3a8a" opacity="0.7"/>
      
      <!-- Trees -->
      <circle cx="-1.5" cy="-2" r="0.8" fill="#1e3a8a" opacity="0.6"/>
      <circle cx="0.5" cy="-2.5" r="0.6" fill="#1e3a8a" opacity="0.6"/>
      <circle cx="1.5" cy="-2" r="0.7" fill="#1e3a8a" opacity="0.6"/>
    </g>
    
    <!-- Mountains in background -->
    <g transform="translate(-8, -2)">
      <path d="M0 2 L2 0 L4 1 L6 0 L8 1 L10 2 L12 0 L16 1" stroke="#1e3a8a" stroke-width="1" fill="none" opacity="0.5"/>
    </g>
  </g>
</svg>
