<svg width="32" height="32" viewBox="0 0 32 32" fill="none" xmlns="http://www.w3.org/2000/svg">
  <!-- Outer circle -->
  <circle cx="16" cy="16" r="16" fill="#ffffff" stroke="#1e40af" stroke-width="0.5"/>
  
  <!-- Decorative border ring -->
  <circle cx="16" cy="16" r="14" fill="none" stroke="#1e40af" stroke-width="0.8"/>
  
  <!-- Top banner with 1910 -->
  <rect x="8" y="4" width="16" height="3" rx="1.5" fill="#1e40af"/>
  <text x="16" y="6.2" text-anchor="middle" fill="white" font-family="serif" font-size="3" font-weight="bold">1910</text>
  
  <!-- Bottom banner with SERVONS -->
  <rect x="8" y="25" width="16" height="3" rx="1.5" fill="#1e40af"/>
  <text x="16" y="27.2" text-anchor="middle" fill="white" font-family="serif" font-size="2.5" font-weight="bold">SERVONS</text>
  
  <!-- School name text -->
  <text x="16" y="10" text-anchor="middle" fill="#1e40af" font-family="serif" font-size="3" font-weight="bold">CATE SCHOOL</text>
  <text x="16" y="22" text-anchor="middle" fill="#1e40af" font-family="serif" font-size="2.2" font-weight="bold">CARPINTERIA • CA</text>
  
  <!-- Central illustration - simplified sailing ship -->
  <g transform="translate(16, 16)">
    <!-- Water -->
    <path d="M-8 2 Q-4 1 0 2 Q4 3 8 2" stroke="#1e40af" stroke-width="0.5" fill="none"/>
    <!-- Ship hull -->
    <ellipse cx="3" cy="1" rx="2" ry="1" fill="#1e40af" opacity="0.7"/>
    <!-- Ship mast -->
    <line x1="3" y1="1" x2="3" y2="-2" stroke="#1e40af" stroke-width="0.5"/>
    <!-- Ship sails -->
    <path d="M3 -2 L6 -1 L3 0" fill="#1e40af" opacity="0.8"/>
    <!-- Shore/buildings -->
    <rect x="-6" y="-1" width="2" height="2" fill="#1e40af" opacity="0.6"/>
    <rect x="-5" y="-2" width="1.5" height="3" fill="#1e40af" opacity="0.6"/>
  </g>
</svg>
